# xmcd
#
# Track frame offsets:
# 150
# 54160
# 90187
# 116500
# 149615
# 182930
# 229110
# 241220
# 277152
# 308160
# 320642
#
# Disc length: 4543 seconds
#
#
# Revision: 9
# Processed by: cddbd v1.5.2PL0 Copyright (c) Steve Scherf et al.
# Submitted via: FreeRIP 2.60 
#
DISCID=9211bc0b,9711bd0b,9811bf0b,9e11be0b
DTITLE=Meat Loaf / Bat Out Of Hell II - Back Into Hell
DYEAR=1993
DGENRE=Rock
TTITLE0=I'd Do Anything For Love (But I Won't Do That)
TTITLE1=Life Is A Lemon And I Want My Money Back
TTITLE2=Rock And Roll Dreams Come Through
TTITLE3=It Just Won't Quit
TTITLE4=Out Of The Frying Pan (And Into The Fire)
TTITLE5=Objects In The Rear View Mirror May Appear Closer Than They Are
TTITLE6=Wasted Youth
TTITLE7=Everything Louder Than Everything Else
TTITLE8=Good Girls Go To Heaven (Bad Girls Go Everywhere)
TTITLE9=Back Into Hell
TTITLE10=Lost Boys And Golden Girls
EXTD=YEAR: 1993 ID3G: 17
EXTT0=
EXTT1=
EXTT2=
EXTT3=
EXTT4=
EXTT5=
EXTT6=
EXTT7=
EXTT8=
EXTT9=
EXTT10=
PLAYORDER=
.
